<svg width="80" height="80" viewBox="0 0 80 80" fill="none" xmlns="http://www.w3.org/2000/svg">
<g clip-path="url(#clip0_602_99)">
<mask id="mask0_602_99" style="mask-type:alpha" x="0" y="0" width="81" height="81">
<g clip-path="url(#clip1_602_99)">
<path d="M64.302 4.93555L15.691 4.93555C13.0525 4.93555 10.9058 7.08225 10.9058 9.72074L10.9058 65.6235C10.9058 67.9503 12.5754 69.8936 14.7794 70.3205L15.4556 73.026C15.7859 74.347 16.9677 75.2697 18.3294 75.2697H20.3441C21.7059 75.2697 22.8877 74.347 23.2178 73.0259L23.8722 70.4087H56.121L56.7753 73.0259C57.1054 74.347 58.2872 75.2697 59.6488 75.2697H61.6635C63.0253 75.2697 64.2071 74.347 64.5372 73.0259L65.2135 70.3204C67.4176 69.8936 69.0872 67.9503 69.0872 65.6235V9.72074C69.0872 7.08225 66.9405 4.93555 64.302 4.93555ZM21.0074 72.4734C20.9311 72.7782 20.6584 72.9911 20.3441 72.9911H18.3294C18.0151 72.9911 17.7425 72.7784 17.6662 72.4734L17.15 70.4087H21.5233L21.0074 72.4734ZM62.3268 72.4734C62.2505 72.7782 61.9778 72.9911 61.6635 72.9911H59.6488C59.3345 72.9911 59.0619 72.7784 58.9856 72.4734L58.4695 70.4087H62.8429L62.3268 72.4734ZM66.8085 65.6235C66.8085 67.0056 65.6841 68.13 64.302 68.13H15.691C14.3089 68.13 13.1845 67.0056 13.1845 65.6235L13.1845 9.72074C13.1845 8.33865 14.3089 7.21426 15.691 7.21426L64.302 7.21426C65.6841 7.21426 66.8085 8.33865 66.8085 9.72074V65.6235Z" fill="black"/>
<path d="M50.9332 12.2275L19.3365 12.2275C18.7073 12.2275 18.1971 12.7376 18.1971 13.3669V19.5192H18.1211C16.8227 19.5192 15.7666 20.5755 15.7666 21.8738V26.7349C15.7666 28.0333 16.8228 29.0895 18.1211 29.0895H18.1971L18.1971 46.2552H18.1211C16.8227 46.2552 15.7666 47.3115 15.7666 48.6098V53.4709C15.7666 54.7694 16.8228 55.8255 18.1211 55.8255H18.1971V61.9778C18.1971 62.607 18.7072 63.1171 19.3365 63.1171H24.1978C24.8269 63.1171 25.3371 62.6071 25.3371 61.9778C25.3371 61.3486 24.8272 60.8384 24.1978 60.8384H20.4758V55.8255H20.5518C21.8502 55.8255 22.9063 54.7692 22.9063 53.4709V48.6098C22.9063 47.3113 21.8501 46.2552 20.5518 46.2552H20.4758L20.4758 29.0895H20.5518C21.8502 29.0895 22.9063 28.0332 22.9063 26.7349V21.8738C22.9063 20.5753 21.8501 19.5192 20.5518 19.5192H20.4758V14.5061L50.9332 14.5061C51.5624 14.5061 52.0726 13.9961 52.0726 13.3668C52.0725 12.7376 51.5624 12.2275 50.9332 12.2275ZM20.5518 48.534C20.5937 48.534 20.6278 48.568 20.6278 48.6099V53.4711C20.6278 53.513 20.5937 53.547 20.5518 53.547H18.1211C18.0792 53.547 18.0452 53.513 18.0452 53.4711V48.6099C18.0452 48.568 18.0792 48.534 18.1211 48.534H20.5518ZM20.5518 21.7978C20.5937 21.7978 20.6278 21.8319 20.6278 21.8738V26.7349C20.6278 26.7768 20.5937 26.8109 20.5518 26.8109H18.1211C18.0792 26.8109 18.0452 26.7768 18.0452 26.7349V21.8738C18.0452 21.8319 18.0792 21.7978 18.1211 21.7978H20.5518Z" fill="black"/>
<path d="M60.6556 12.2275H55.7943C55.1651 12.2275 54.655 12.7376 54.655 13.3669C54.655 13.9961 55.165 14.5063 55.7943 14.5063H59.5163L59.5163 60.8388H29.0588C28.4296 60.8388 27.9194 61.3488 27.9194 61.9781C27.9194 62.6073 28.4295 63.1175 29.0588 63.1175H60.6556C61.2848 63.1175 61.795 62.6074 61.795 61.9781V13.3669C61.795 12.7376 61.2848 12.2275 60.6556 12.2275Z" fill="black"/>
<path d="M52.0019 36.8486C51.8944 36.2287 51.3048 35.8131 50.6844 35.9213C50.0645 36.029 49.6493 36.6188 49.757 37.2388C49.7816 37.3806 49.7941 37.5262 49.7941 37.6719C49.7941 39.054 48.6697 40.1784 47.2876 40.1784C45.9055 40.1784 44.7812 39.054 44.7812 37.6719C44.7812 36.2898 45.9055 35.1654 47.2876 35.1654C47.4283 35.1654 47.5692 35.1771 47.707 35.2002C48.3284 35.3047 48.9148 34.8851 49.0188 34.2646C49.1226 33.644 48.7039 33.0568 48.0832 32.9528C47.8216 32.9088 47.5539 32.8867 47.2876 32.8867C44.6491 32.8866 42.5024 35.0331 42.5024 37.6718C42.5024 40.3103 44.6491 42.457 47.2876 42.457C49.9261 42.457 52.0728 40.3103 52.0728 37.6718C52.0728 37.3957 52.0489 37.1187 52.0019 36.8486Z" fill="black"/>
<path d="M48.4273 28.0949V26.7341C48.4273 26.1049 47.9172 25.5947 47.288 25.5947C46.6588 25.5947 46.1486 26.1048 46.1486 26.7341V28.0949C41.3649 28.6606 37.6416 32.7383 37.6416 37.6716C37.6416 42.9906 41.9689 47.3178 47.2878 47.3178C52.6067 47.3178 56.934 42.9905 56.934 37.6716C56.9342 32.7383 53.2109 28.6606 48.4273 28.0949ZM47.288 45.0392C43.2255 45.0392 39.9203 41.7341 39.9203 37.6716C39.9203 33.6091 43.2255 30.304 47.288 30.304C51.3504 30.304 54.6556 33.6091 54.6556 37.6716C54.6556 41.7341 51.3504 45.0392 47.288 45.0392Z" fill="black"/>
</g>
</mask>
<g mask="url(#mask0_602_99)">
<circle cx="40" cy="40" r="67" fill="url(#paint0_linear_602_99)"/>
</g>
</g>
<defs>
<linearGradient id="paint0_linear_602_99" x1="40" y1="-27" x2="40" y2="107" gradientUnits="userSpaceOnUse">
<stop stop-color="#017AF1"/>
<stop offset="1" stop-color="#D9D9D9" stop-opacity="0"/>
</linearGradient>
<clipPath id="clip0_602_99">
<rect width="80" height="80" fill="white"/>
</clipPath>
<clipPath id="clip1_602_99">
<rect width="80" height="80" fill="white" transform="translate(0.336426 0.0634766)"/>
</clipPath>
</defs>
</svg>
