<svg width="80" height="80" viewBox="0 0 80 80" fill="none" xmlns="http://www.w3.org/2000/svg">
<g clip-path="url(#clip0_602_120)">
<mask id="mask0_602_120" style="mask-type:alpha" x="0" y="0" width="81" height="81">
<g clip-path="url(#clip1_602_120)">
<path d="M54.4305 12.538C53.7308 12.436 53.0824 12.919 52.98 13.6176C52.2171 18.8219 50.7213 23.5718 48.6545 27.3539C47.9984 28.5544 47.29 29.641 46.5494 30.5831C46.113 31.1381 46.2091 31.9419 46.7644 32.3784C46.9987 32.5626 47.2772 32.6519 47.5537 32.6519C47.9324 32.6519 48.3073 32.4843 48.5597 32.1636C49.3877 31.1106 50.1747 29.9048 50.8985 28.5803C53.1091 24.5352 54.7036 19.4895 55.5102 13.9887C55.6125 13.2899 55.1293 12.6405 54.4305 12.538Z" fill="black"/>
<path d="M54.7043 10.8188C55.4105 10.8188 55.9829 10.2464 55.9829 9.54028C55.9829 8.83415 55.4105 8.26172 54.7043 8.26172C53.9982 8.26172 53.4258 8.83415 53.4258 9.54028C53.4258 10.2464 53.9982 10.8188 54.7043 10.8188Z" fill="black"/>
<path d="M66.8757 11.1741C65.3873 9.40363 63.207 8.38819 60.8938 8.38819L60.3194 8.38819C60.3678 7.35952 60.3935 6.32269 60.3935 5.27856C60.3935 4.57248 59.821 4 59.1149 4L20.8845 4C20.1784 4 19.6059 4.57248 19.6059 5.27856C19.6059 6.32255 19.6318 7.35952 19.6801 8.38819L19.1043 8.38819C16.7922 8.38819 14.6127 9.40335 13.1244 11.1735C11.6359 12.9443 11.01 15.2665 11.4075 17.5455L13.1299 27.4145C13.7845 31.163 17.0223 33.8838 20.8284 33.8838L27.4002 33.8838C29.8175 37.2561 32.6169 39.5773 35.6255 40.7186L35.6255 49.8959L30.11 49.8959C29.404 49.8959 28.8315 50.4684 28.8315 51.1744L28.8315 58.2702L25.6057 58.2702C24.8996 58.2702 24.3271 58.8427 24.3271 59.5488L24.3271 74.7214C24.3271 75.4275 24.8996 76 25.6057 76L54.3935 76C55.0995 76 55.672 75.4275 55.672 74.7214L55.672 59.5488C55.672 58.8427 55.0995 58.2702 54.3935 58.2702L51.1677 58.2702L51.1677 51.1744C51.1677 50.4684 50.5952 49.8959 49.8891 49.8959L44.3726 49.8959L44.3726 40.7192C47.3815 39.5781 50.1813 37.2568 52.5991 33.8841L59.1715 33.8841C62.9766 33.8841 66.2137 31.1634 66.8681 27.4151L68.5923 17.5459C68.9899 15.2668 68.3641 12.9446 66.8757 11.1741ZM59.6303 15.2071L60.8936 15.2071C61.2772 15.2071 61.5186 15.3993 61.6587 15.5666C61.7937 15.726 61.9411 15.9954 61.8758 16.3713L60.1505 26.2433C60.0678 26.7187 59.6563 27.0638 59.1717 27.0638L56.3467 27.0638C57.8495 23.4922 58.9576 19.4802 59.6303 15.2071ZM23.6527 27.0638L20.8283 27.0638C20.3427 27.0638 19.9305 26.7187 19.8478 26.2423L18.1257 16.373C18.0598 15.9948 18.2077 15.7233 18.344 15.5617C18.5421 15.3265 18.7982 15.2071 19.1046 15.2071L20.3691 15.2071C21.042 19.4802 22.15 23.4922 23.6527 27.0638ZM20.8284 31.3266C18.2675 31.3266 16.0892 29.4963 15.6488 26.9748L13.9267 17.1059C13.6594 15.5728 14.0803 14.0104 15.0818 12.8191C16.083 11.6283 17.549 10.9454 19.1043 10.9454L19.8509 10.9454C19.9006 11.5172 19.9577 12.0855 20.0222 12.6501L19.1046 12.6501C17.6672 12.6501 16.7854 13.4427 16.388 13.9146C15.9897 14.3874 15.3584 15.3928 15.6067 16.813L17.3284 26.6809C17.6241 28.3847 19.096 29.6211 20.8281 29.6211L24.8349 29.6211C25.0068 29.9601 25.1816 30.2958 25.3611 30.6247C25.4911 30.8625 25.623 31.0961 25.756 31.3267L20.8284 31.3267L20.8284 31.3266ZM53.1152 60.8269L53.1152 73.4425L26.8845 73.4425L26.8845 60.8269L53.1152 60.8269ZM48.6109 52.4527L48.6109 58.2699L31.3887 58.2699L31.3887 52.4527L48.6109 52.4527ZM38.1829 49.8955L38.1829 41.3942C38.783 41.4857 39.389 41.5346 40 41.5346C40.6105 41.5346 41.216 41.4857 41.8157 41.3943L41.8157 49.8955L38.1829 49.8955ZM52.3942 29.3983C49.0184 35.5755 44.6167 38.9775 39.9999 38.9775C35.383 38.9775 30.9812 35.5755 27.6052 29.3983C24.2602 23.2774 22.3476 15.208 22.1757 6.55726L57.8237 6.55726C57.652 15.2079 55.7392 23.2774 52.3942 29.3983ZM66.0735 17.1055L64.3494 26.9745C63.9091 29.4962 61.7315 31.3264 59.1717 31.3264L54.2434 31.3264C54.3765 31.0958 54.5084 30.8624 54.6383 30.6244C54.818 30.2955 54.9927 29.96 55.1645 29.6208L59.1719 29.6208C60.903 29.6208 62.3742 28.3843 62.6698 26.682L64.3954 16.8096C64.5754 15.7705 64.2891 14.715 63.6146 13.9194C63.2178 13.4453 62.3366 12.65 60.8937 12.65L59.9774 12.65C60.0419 12.0853 60.0992 11.5169 60.1487 10.9453L60.8938 10.9453C62.4501 10.9453 63.9171 11.6285 64.9185 12.8195C65.9198 14.0108 66.3408 15.573 66.0735 17.1055Z" fill="black"/>
</g>
</mask>
<g mask="url(#mask0_602_120)">
<circle cx="40" cy="40" r="67" fill="url(#paint0_linear_602_120)"/>
</g>
</g>
<defs>
<linearGradient id="paint0_linear_602_120" x1="40" y1="-27" x2="40" y2="107" gradientUnits="userSpaceOnUse">
<stop stop-color="#017AF1"/>
<stop offset="1" stop-color="#D9D9D9" stop-opacity="0"/>
</linearGradient>
<clipPath id="clip0_602_120">
<rect width="80" height="80" fill="white"/>
</clipPath>
<clipPath id="clip1_602_120">
<rect width="72" height="72" fill="white" transform="translate(4 4)"/>
</clipPath>
</defs>
</svg>
