<svg width="80" height="80" viewBox="0 0 80 80" fill="none" xmlns="http://www.w3.org/2000/svg">
<g clip-path="url(#clip0_602_148)">
<mask id="mask0_602_148" style="mask-type:alpha" x="0" y="0" width="81" height="81">
<g clip-path="url(#clip1_602_148)">
<path fill-rule="evenodd" clip-rule="evenodd" d="M73.6885 51.3751C73.6885 47.7525 70.751 44.8125 67.126 44.8125C64.4535 44.8125 61.0485 44.8125 58.376 44.8125C54.751 44.8125 51.8135 47.7525 51.8135 51.3751C51.8135 52.7828 51.8135 53.4692 51.8135 54.8769C51.8135 58.4994 54.751 61.0001 58.376 61.0001C61.0485 61.0001 64.4535 61.0001 67.126 61.0001C70.751 61.0001 73.6885 58.4994 73.6885 54.8769L73.6885 51.3751ZM70.1885 51.3751C70.1885 50.1676 68.3335 48.3129 67.126 48.3129C64.4535 48.3129 61.0485 48.3129 58.376 48.3129C57.1685 48.3129 55.751 50.1676 55.751 51.3751C55.751 52.7828 55.751 53.4692 55.751 54.8769C55.751 56.0844 57.1685 57.9375 58.376 57.9375C61.0485 57.9375 64.4535 57.9375 67.126 57.9375C68.3335 57.9375 70.1885 56.0844 70.1885 54.8769L70.1885 51.3751Z" fill="black"/>
<path fill-rule="evenodd" clip-rule="evenodd" d="M61.8749 48.3125C63.0824 48.3125 64.0624 47.7703 64.0624 46.5628C64.0624 46.5628 64.0624 41.6299 64.0624 37.8127C64.0624 36.0714 63.982 35.5419 62.7504 34.3125C61.5211 33.0809 59.2411 33 57.4999 33C44.8912 33 9.375 33 9.375 33C8.1675 33 7.1875 33.98 7.1875 35.1875C7.1875 35.1875 7.1875 58.1786 7.1875 68.4381C7.1875 70.1794 7.87874 71.8485 9.1103 73.0778C10.3397 74.3094 12.0087 75.0007 13.75 75.0007C23.6375 75.0007 47.6124 75.0007 57.4999 75.0007C59.2411 75.0007 60.9102 74.3094 62.1396 73.0778C63.3711 71.8485 64.0624 70.1794 64.0624 68.4381C64.0624 64.6209 64.0624 60.125 64.0624 60.125C64.0624 58.9175 63.0824 57.9375 61.8749 57.9375C61.8749 57.9375 60.5629 57.9375 58.3754 57.9375C57.1679 57.9375 55.3129 56.9575 55.3129 55.7499C55.3129 54.3412 55.3129 51.9088 55.3129 50.5C55.3129 49.2925 57.1679 48.3125 58.3754 48.3125L61.8749 48.3125ZM10.4845 35.6252L10.4845 69.3125C10.4845 69.8922 10.7142 70.45 11.1254 70.8591C11.5345 71.2703 12.0923 71.5 12.672 71.5C22.5595 71.5 48.488 71.5 58.3754 71.5C58.9551 71.5 59.5129 71.2703 59.922 70.8591C60.3332 70.45 60.5629 69.8922 60.5629 69.3125L60.5629 61L58.3754 61C54.7508 61 51.8129 59.3747 51.8129 55.7499C51.8129 54.3412 51.8129 51.9088 51.8129 50.5C51.8129 46.8753 54.7508 44.8125 58.3754 44.8125L61.0004 44.8122L61.0004 37.8124C61.0004 37.2327 60.5367 36.4716 60.1254 36.0625C59.7164 35.6512 58.9551 35.6252 58.3754 35.6252L10.4845 35.6252Z" fill="black"/>
<path fill-rule="evenodd" clip-rule="evenodd" d="M7.1875 29.0626L7.1875 33.4376C7.1875 34.6452 8.1675 35.6252 9.37499 35.6252L57.4999 35.6252C58.7074 35.6252 59.6874 34.6452 59.6874 33.4376C59.6874 33.4376 59.6874 31.2501 59.6874 29.0626C59.6874 27.3228 58.9961 25.653 57.7646 24.4221C56.5352 23.1913 54.8666 22.9375 53.1253 22.9375C43.9729 22.9375 22.9029 22.9375 13.7504 22.9375C12.0092 22.9375 10.3397 23.1913 9.1103 24.4221C7.87874 25.653 7.1875 27.3228 7.1875 29.0626ZM56.6254 33L56.6254 28.1875C56.6254 27.6071 56.3957 27.0515 55.9845 26.6402C55.5754 26.2304 55.0176 26 54.4379 26C45.2854 26 21.5904 26 12.4379 26C11.8582 26 11.3004 26.2304 10.8914 26.6402C10.4801 27.0515 10.2504 27.6071 10.2504 28.1875L10.2504 33L56.6254 33Z" fill="black"/>
<path fill-rule="evenodd" clip-rule="evenodd" d="M21.625 8.9375L21.625 14.1875C21.625 14.912 22.213 15.5 22.9375 15.5C23.662 15.5 24.25 14.912 24.25 14.1875L24.25 8.9375C24.25 8.213 23.662 7.625 22.9375 7.625C22.213 7.625 21.625 8.213 21.625 8.9375Z" fill="black"/>
<path fill-rule="evenodd" clip-rule="evenodd" d="M32.125 8.9375L32.125 14.1875C32.125 14.912 32.713 15.5 33.4375 15.5C34.162 15.5 34.75 14.912 34.75 14.1875L34.75 8.9375C34.75 8.213 34.162 7.625 33.4375 7.625C32.713 7.625 32.125 8.213 32.125 8.9375Z" fill="black"/>
<path fill-rule="evenodd" clip-rule="evenodd" d="M42.625 8.9375L42.625 14.1875C42.625 14.912 43.213 15.5 43.9375 15.5C44.662 15.5 45.25 14.912 45.25 14.1875L45.25 8.9375C45.25 8.213 44.662 7.625 43.9375 7.625C43.213 7.625 42.625 8.213 42.625 8.9375Z" fill="black"/>
<path fill-rule="evenodd" clip-rule="evenodd" d="M25.5625 10.25L20.3125 10.25C19.588 10.25 19 10.838 19 11.5625C19 12.287 19.588 12.875 20.3125 12.875L25.5625 12.875C26.287 12.875 26.875 12.287 26.875 11.5625C26.875 10.838 26.287 10.25 25.5625 10.25Z" fill="black"/>
<path fill-rule="evenodd" clip-rule="evenodd" d="M36.0625 10.25L30.8125 10.25C30.088 10.25 29.5 10.838 29.5 11.5625C29.5 12.287 30.088 12.875 30.8125 12.875L36.0625 12.875C36.787 12.875 37.375 12.287 37.375 11.5625C37.375 10.838 36.787 10.25 36.0625 10.25Z" fill="black"/>
<path fill-rule="evenodd" clip-rule="evenodd" d="M46.5625 10.25L41.3125 10.25C40.588 10.25 40 10.838 40 11.5625C40 12.287 40.588 12.875 41.3125 12.875L46.5625 12.875C47.287 12.875 47.875 12.287 47.875 11.5625C47.875 10.838 47.287 10.25 46.5625 10.25Z" fill="black"/>
</g>
</mask>
<g mask="url(#mask0_602_148)">
<circle cx="40" cy="40" r="67" fill="url(#paint0_linear_602_148)"/>
</g>
</g>
<defs>
<linearGradient id="paint0_linear_602_148" x1="40" y1="-27" x2="40" y2="107" gradientUnits="userSpaceOnUse">
<stop stop-color="#017AF1"/>
<stop offset="1" stop-color="#D9D9D9" stop-opacity="0"/>
</linearGradient>
<clipPath id="clip0_602_148">
<rect width="80" height="80" fill="white"/>
</clipPath>
<clipPath id="clip1_602_148">
<rect width="70" height="70" fill="white" transform="translate(5 5)"/>
</clipPath>
</defs>
</svg>
