<svg width="80" height="80" viewBox="0 0 80 80" fill="none" xmlns="http://www.w3.org/2000/svg">
<g clip-path="url(#clip0_602_148)">
<mask id="mask0_602_148" style="mask-type:alpha" maskUnits="userSpaceOnUse" x="0" y="0" width="81" height="81">
<g clip-path="url(#clip1_602_148)">
<path fill-rule="evenodd" clip-rule="evenodd" d="M73.687 51.3751C73.687 47.7525 70.7495 44.8125 67.1245 44.8125C64.452 44.8125 61.047 44.8125 58.3745 44.8125C54.7495 44.8125 51.812 47.7525 51.812 51.3751C51.812 52.7828 51.812 53.4692 51.812 54.8769C51.812 58.4994 54.7495 61.0001 58.3745 61.0001C61.047 61.0001 64.452 61.0001 67.1245 61.0001C70.7495 61.0001 73.687 58.4994 73.687 54.8769L73.687 51.3751ZM70.187 51.3751C70.187 50.1676 68.332 48.3129 67.1245 48.3129C64.452 48.3129 61.047 48.3129 58.3745 48.3129C57.167 48.3129 55.7495 50.1676 55.7495 51.3751C55.7495 52.7828 55.7495 53.4692 55.7495 54.8769C55.7495 56.0844 57.167 57.9375 58.3745 57.9375C61.047 57.9375 64.452 57.9375 67.1245 57.9375C68.332 57.9375 70.187 56.0844 70.187 54.8769L70.187 51.3751Z" fill="black"/>
<path fill-rule="evenodd" clip-rule="evenodd" d="M61.8739 48.3125C63.0814 48.3125 64.0614 47.7703 64.0614 46.5628C64.0614 46.5628 64.0614 41.6299 64.0614 37.8127C64.0614 36.0714 63.981 35.5419 62.7495 34.3125C61.5201 33.0809 59.2402 33 57.4989 33C44.8902 33 9.37402 33 9.37402 33C8.16652 33 7.18652 33.98 7.18652 35.1875C7.18652 35.1875 7.18652 58.1786 7.18652 68.4381C7.18652 70.1794 7.87777 71.8485 9.10933 73.0779C10.3387 74.3094 12.0078 75.0007 13.749 75.0007C23.6365 75.0007 47.6114 75.0007 57.4989 75.0007C59.2402 75.0007 60.9092 74.3094 62.1386 73.0779C63.3702 71.8485 64.0614 70.1794 64.0614 68.4381C64.0614 64.6209 64.0614 60.125 64.0614 60.125C64.0614 58.9175 63.0814 57.9375 61.8739 57.9375C61.8739 57.9375 60.562 57.9375 58.3745 57.9375C57.167 57.9375 55.312 56.9575 55.312 55.7499C55.312 54.3412 55.312 51.9088 55.312 50.5C55.312 49.2925 57.167 48.3125 58.3745 48.3125L61.8739 48.3125ZM10.4835 35.6252L10.4835 69.3125C10.4835 69.8922 10.7132 70.45 11.1245 70.8591C11.5335 71.2703 12.0913 71.5 12.671 71.5C22.5585 71.5 48.487 71.5 58.3745 71.5C58.9541 71.5 59.512 71.2703 59.921 70.8591C60.3323 70.45 60.562 69.8922 60.562 69.3125L60.562 61L58.3745 61C54.7498 61 51.812 59.3747 51.812 55.7499C51.812 54.3412 51.812 51.9088 51.812 50.5C51.812 46.8753 54.7498 44.8125 58.3745 44.8125L60.9995 44.8122L60.9995 37.8124C60.9995 37.2327 60.5357 36.4716 60.1245 36.0625C59.7154 35.6512 58.9541 35.6252 58.3745 35.6252L10.4835 35.6252Z" fill="black"/>
<path fill-rule="evenodd" clip-rule="evenodd" d="M7.18652 29.0626L7.18652 33.4376C7.18652 34.6452 8.16652 35.6252 9.37402 35.6252L57.4989 35.6252C58.7064 35.6252 59.6864 34.6452 59.6864 33.4376C59.6864 33.4376 59.6864 31.2501 59.6864 29.0626C59.6864 27.3228 58.9952 25.653 57.7636 24.4221C56.5342 23.1913 54.8656 22.9375 53.1244 22.9375C43.9719 22.9375 22.9019 22.9375 13.7495 22.9375C12.0082 22.9375 10.3387 23.1913 9.10933 24.4221C7.87777 25.653 7.18652 27.3228 7.18652 29.0626ZM56.6244 33L56.6244 28.1875C56.6244 27.6071 56.3948 27.0515 55.9835 26.6402C55.5745 26.2304 55.0166 26 54.437 26C45.2845 26 21.5894 26 12.4369 26C11.8573 26 11.2994 26.2304 10.8904 26.6402C10.4791 27.0515 10.2495 27.6071 10.2495 28.1875L10.2495 33L56.6244 33Z" fill="black"/>
<path fill-rule="evenodd" clip-rule="evenodd" d="M21.6245 8.9375L21.6245 14.1875C21.6245 14.912 22.2125 15.5 22.937 15.5C23.6615 15.5 24.2495 14.912 24.2495 14.1875L24.2495 8.9375C24.2495 8.213 23.6615 7.625 22.937 7.625C22.2125 7.625 21.6245 8.213 21.6245 8.9375Z" fill="black"/>
<path fill-rule="evenodd" clip-rule="evenodd" d="M32.1245 8.9375L32.1245 14.1875C32.1245 14.912 32.7125 15.5 33.437 15.5C34.1615 15.5 34.7495 14.912 34.7495 14.1875L34.7495 8.9375C34.7495 8.213 34.1615 7.625 33.437 7.625C32.7125 7.625 32.1245 8.213 32.1245 8.9375Z" fill="black"/>
<path fill-rule="evenodd" clip-rule="evenodd" d="M42.6245 8.9375L42.6245 14.1875C42.6245 14.912 43.2125 15.5 43.937 15.5C44.6615 15.5 45.2495 14.912 45.2495 14.1875L45.2495 8.9375C45.2495 8.213 44.6615 7.625 43.937 7.625C43.2125 7.625 42.6245 8.213 42.6245 8.9375Z" fill="black"/>
<path fill-rule="evenodd" clip-rule="evenodd" d="M25.562 10.25L20.312 10.25C19.5875 10.25 18.9995 10.838 18.9995 11.5625C18.9995 12.287 19.5875 12.875 20.312 12.875L25.562 12.875C26.2865 12.875 26.8745 12.287 26.8745 11.5625C26.8745 10.838 26.2865 10.25 25.562 10.25Z" fill="black"/>
<path fill-rule="evenodd" clip-rule="evenodd" d="M36.062 10.25L30.812 10.25C30.0875 10.25 29.4995 10.838 29.4995 11.5625C29.4995 12.287 30.0875 12.875 30.812 12.875L36.062 12.875C36.7865 12.875 37.3745 12.287 37.3745 11.5625C37.3745 10.838 36.7865 10.25 36.062 10.25Z" fill="black"/>
<path fill-rule="evenodd" clip-rule="evenodd" d="M46.562 10.25L41.312 10.25C40.5875 10.25 39.9995 10.838 39.9995 11.5625C39.9995 12.287 40.5875 12.875 41.312 12.875L46.562 12.875C47.2865 12.875 47.8745 12.287 47.8745 11.5625C47.8745 10.838 47.2865 10.25 46.562 10.25Z" fill="black"/>
</g>
</mask>
<g mask="url(#mask0_602_148)">
<circle cx="40" cy="40" r="67" fill="#017AF1"/>
</g>
</g>
<defs>
<clipPath id="clip0_602_148">
<rect width="80" height="80" fill="white"/>
</clipPath>
<clipPath id="clip1_602_148">
<rect width="70" height="70" fill="white" transform="translate(4.99951 5)"/>
</clipPath>
</defs>
</svg>
