<svg width="80" height="80" viewBox="0 0 80 80" fill="none" xmlns="http://www.w3.org/2000/svg">
<g clip-path="url(#clip0_602_37)">
<mask id="mask0_602_37" style="mask-type:alpha" maskUnits="userSpaceOnUse" x="-10" y="-10" width="101" height="101">
<g clip-path="url(#clip1_602_37)">
<path d="M56.5327 46.6039C54.8176 46.9964 52.4585 46.2637 51.2518 44.9639C50.0609 43.669 50.4722 42.2892 52.1873 41.8968C53.9023 41.5044 56.2615 42.237 57.4681 43.5368C58.6747 44.8366 58.2633 46.2163 56.5327 46.6039ZM34.6459 18.8387C33.4393 17.539 31.0801 16.8063 29.3651 17.1987C27.6501 17.5911 27.2387 18.9709 28.4297 20.2658C29.6363 21.5656 31.9955 22.2983 33.7105 21.9059C35.4255 21.5134 35.8369 20.1337 34.6459 18.8387ZM76.7937 51.2518L50.4557 57.2905C47.6335 57.9387 43.7275 56.7256 41.7533 54.5879L7.56808 17.607C5.59388 15.4693 6.28182 13.199 9.10409 12.5509L35.442 6.5121C38.2643 5.86397 42.1702 7.07701 44.1444 9.21476L78.3141 46.1907C80.3039 48.3333 79.616 50.6036 76.7937 51.2518ZM68.1978 49.1989C67.8089 48.9068 67.4404 48.6039 67.1334 48.2687C65.1328 46.1057 65.8256 43.8197 68.6888 43.1501C69.1317 43.0478 69.5757 42.9972 70.0617 42.9769L43.4554 14.1914C43.1941 14.3158 42.8907 14.41 42.561 14.4789C39.7026 15.1329 35.7498 13.9053 33.7492 11.7423C33.5321 11.5035 33.3463 11.2745 33.1966 11.0396L17.4629 14.65C17.7209 14.8672 17.9633 15.0795 18.1804 15.3183C20.181 17.4813 19.4882 19.7673 16.6298 20.4213C16.3001 20.4902 15.9596 20.5386 15.6083 20.5666L42.1353 49.2761C42.3255 49.2152 42.5362 49.1436 42.7577 49.0925C45.616 48.4384 49.5532 49.6612 51.5694 51.8291C51.8765 52.1643 52.1161 52.4957 52.3041 52.8282L68.1978 49.1989ZM4.21767 24.2582L40.0173 62.9909L40.515 63.5395L41.2347 64.3112C42.2457 65.4132 44.23 66.0294 45.6874 65.6941L75.2135 58.9323C76.4134 58.654 76.7143 57.6854 75.8675 56.7714C75.0207 55.8575 73.3646 55.3431 72.149 55.6166L44.3741 61.98L8.66442 23.3437C7.82841 22.4502 6.21704 21.847 4.9848 22.0639C3.67551 22.3082 3.34449 23.3189 4.21767 24.2582ZM73.4737 64.6447C72.6269 63.7308 70.9708 63.2164 69.7553 63.4899L41.9755 69.8689L6.27064 31.217C5.43463 30.3235 3.82326 29.7203 2.59102 29.9372C1.28173 30.1815 0.93994 31.1717 1.81312 32.111L37.6235 70.8642L38.1369 71.4177L38.8565 72.1893C39.8676 73.2913 41.8518 73.9076 43.3093 73.5722L72.8353 66.8105C74.0353 66.5322 74.3205 65.5586 73.4737 64.6447ZM50.7528 40.3378C44.5727 41.7589 36.0685 39.135 31.7495 34.4532C27.4257 29.787 28.9541 24.8655 35.1342 23.4444C41.3143 22.0232 49.8185 24.6472 54.1375 29.329C58.4613 33.9952 56.928 38.9323 50.7528 40.3378ZM51.3479 33.5676L51.3075 33.3666C51.0173 32.5912 50.567 31.8347 49.9001 31.1137C49.6459 30.8291 49.3507 30.5662 49.0399 30.2983C48.2238 29.6166 47.2799 29.0151 46.1637 28.5828C44.7446 28.0222 43.3115 27.7827 41.9091 27.7754L41.7383 27.7737L40.7908 26.7428C40.6372 26.5753 40.3404 26.4831 40.1346 26.5391L39.2692 26.7328C39.0478 26.784 38.9944 26.9558 39.1479 27.1234L39.894 27.9204C39.6569 27.9667 39.415 28.0286 39.1935 28.0798L38.4475 27.2828C38.294 27.1152 37.9971 27.023 37.7913 27.079L36.926 27.2728C36.7045 27.3239 36.6511 27.4958 36.8047 27.6634L37.7042 28.628C37.4537 28.7729 37.1923 28.8973 36.9682 29.0675C35.863 29.9234 35.5125 30.9966 36.1152 32.3657C36.3807 32.945 36.7593 33.4908 37.2306 34.0141C37.6912 34.5169 38.2601 35.0019 38.906 35.4594C39.2577 35.7057 39.63 35.9413 40.0071 36.1612C40.389 36.3654 40.6945 36.3746 40.9187 36.2044C41.179 36.0283 41.4285 35.8317 41.6467 35.6254C41.8094 35.4875 41.8122 35.3684 41.6743 35.2057C41.6371 35.1599 41.5843 35.1092 41.5111 35.0693C41.1065 34.7724 40.6971 34.4911 40.313 34.1833C39.9709 33.9058 39.6601 33.638 39.3902 33.3486C39.0832 33.0134 38.8435 32.682 38.6808 32.3231C38.2909 31.4826 38.6569 30.911 39.3666 30.4462L41.2772 32.5128C41.4307 32.6804 41.7276 32.7726 41.9334 32.7166L42.7987 32.5228C43.0202 32.4716 43.0735 32.2998 42.92 32.1322L40.8138 29.8678C41.0558 29.8059 41.2928 29.7596 41.5143 29.7085L43.6205 31.9728C43.774 32.1404 44.0708 32.2326 44.2767 32.1766L45.142 31.9828C45.3634 31.9317 45.4168 31.7598 45.2633 31.5923L43.427 29.6172L43.4631 29.6113C44.4011 29.6799 45.2954 29.8892 46.1288 30.4049C46.6788 30.7299 47.1109 31.1039 47.4707 31.4898C47.7406 31.7792 47.9695 32.0901 48.1467 32.4021C48.3659 32.7443 48.5285 33.1031 48.7321 33.4404C48.7693 33.4862 48.7908 33.5272 48.828 33.573C48.9659 33.7357 49.1798 33.8193 49.4804 33.8441C49.9314 33.8814 50.3667 33.9138 50.8069 33.9306C51.211 33.9533 51.3845 33.8359 51.3479 33.5676Z" fill="black"/>
</g>
</mask>
<g mask="url(#mask0_602_37)">
<circle cx="40" cy="40" r="67" fill="#017AF1"/>
</g>
</g>
<defs>
<clipPath id="clip0_602_37">
<rect width="80" height="80" fill="white"/>
</clipPath>
<clipPath id="clip1_602_37">
<rect width="80" height="80" fill="white" transform="translate(14 -10) rotate(17.253)"/>
</clipPath>
</defs>
</svg>
