<svg width="80" height="80" viewBox="0 0 80 80" fill="none" xmlns="http://www.w3.org/2000/svg">
<g clip-path="url(#clip0_602_172)">
<mask id="mask0_602_172" style="mask-type:alpha" maskUnits="userSpaceOnUse" x="0" y="0" width="81" height="81">
<g clip-path="url(#clip1_602_172)">
<path d="M72.9602 60.0868L72.9602 19.8987C72.9602 15.8771 69.6828 12.5996 65.6611 12.5996L60.8094 12.5996C59.8361 12.5996 59.049 13.3868 59.049 14.36C59.049 15.3332 59.8361 16.1204 60.8094 16.1204L65.6611 16.1204C67.7507 16.1204 69.4538 17.8235 69.4538 19.913L69.4538 60.1011C69.4538 62.1907 67.7507 63.8938 65.6611 63.8938L32.3857 63.8938L36.9942 59.2853C37.6812 58.5984 37.6812 57.4963 36.9942 56.8094C36.3072 56.1224 35.2052 56.1224 34.5182 56.8094L26.9186 64.409C26.2316 65.096 26.2316 66.198 26.9186 66.885L34.5182 74.4847C34.8617 74.8282 35.3054 74.9999 35.7634 74.9999C36.2213 74.9999 36.665 74.8282 37.0085 74.4847C37.6955 73.7977 37.6955 72.6957 37.0085 72.0087L32.4 67.4003L65.6611 67.4003C69.6828 67.3859 72.9602 64.1085 72.9602 60.0868Z" fill="black"/>
<path d="M53.0808 13.1149L45.4811 5.51523C44.7941 4.82826 43.6921 4.82826 43.0051 5.51523C42.3181 6.20221 42.3181 7.30423 43.0051 7.99121L47.6136 12.5997L14.3382 12.5997C10.3165 12.5997 7.03906 15.8771 7.03906 19.8988L7.03906 60.0869C7.03906 64.1086 10.3165 67.386 14.3382 67.386L19.1899 67.386C20.1632 67.386 20.9503 66.5989 20.9503 65.6257C20.9503 64.6524 20.1632 63.8653 19.1899 63.8653L14.3382 63.8653C12.2486 63.8653 10.5455 62.1621 10.5455 60.0726L10.5455 19.8988C10.5455 17.8092 12.2486 16.1061 14.3382 16.1061L47.5993 16.1061L42.9908 20.7146C42.3038 21.4016 42.3038 22.5036 42.9908 23.1906C43.3343 23.534 43.778 23.7058 44.2359 23.7058C44.6939 23.7058 45.1376 23.534 45.4811 23.1906L53.0808 15.5909C53.7677 14.9182 53.7677 13.8019 53.0808 13.1149Z" fill="black"/>
<path d="M39.9994 42.2401C41.2404 42.2401 42.2464 41.2341 42.2464 39.9931C42.2464 38.7521 41.2404 37.7461 39.9994 37.7461C38.7585 37.7461 37.7524 38.7521 37.7524 39.9931C37.7524 41.2341 38.7585 42.2401 39.9994 42.2401Z" fill="black"/>
<path d="M49.6318 42.2401C50.8727 42.2401 51.8787 41.2341 51.8787 39.9931C51.8787 38.7521 50.8727 37.7461 49.6318 37.7461C48.3908 37.7461 47.3848 38.7521 47.3848 39.9931C47.3848 41.2341 48.3908 42.2401 49.6318 42.2401Z" fill="black"/>
<path d="M30.3676 42.2401C31.6086 42.2401 32.6146 41.2341 32.6146 39.9931C32.6146 38.7521 31.6086 37.7461 30.3676 37.7461C29.1266 37.7461 28.1206 38.7521 28.1206 39.9931C28.1206 41.2341 29.1266 42.2401 30.3676 42.2401Z" fill="black"/>
</g>
</mask>
<g mask="url(#mask0_602_172)">
<circle cx="40" cy="40" r="67" fill="#017AF1"/>
</g>
</g>
<defs>
<clipPath id="clip0_602_172">
<rect width="80" height="80" fill="white"/>
</clipPath>
<clipPath id="clip1_602_172">
<rect width="70" height="70" fill="white" transform="translate(4.99951 5)"/>
</clipPath>
</defs>
</svg>
