<svg width="24" height="22" viewBox="0 0 24 22" fill="none" xmlns="http://www.w3.org/2000/svg">
<path d="M24 2.98573C23.1166 3.40813 22.1678 3.69239 21.1718 3.8206C22.189 3.16463 22.969 2.12601 23.3363 0.887619C22.3856 1.49489 21.3315 1.93618 20.2091 2.17471C19.3109 1.14404 18.0316 0.5 16.6157 0.5C13.8964 0.5 11.6922 2.87441 11.6922 5.80143C11.6922 6.21688 11.7365 6.62239 11.8195 7.00901C7.7277 6.78837 4.10015 4.67734 1.67071 1.46905C1.24795 2.25224 1.00519 3.16264 1.00519 4.13566C1.00519 5.97437 1.87377 7.5974 3.19465 8.54756C2.38791 8.51973 1.62825 8.2812 0.964578 7.88463C0.964578 7.90749 0.964578 7.92836 0.964578 7.95122C0.964578 10.5204 2.66113 12.6633 4.91427 13.1493C4.50167 13.2705 4.066 13.3351 3.61648 13.3351C3.29987 13.3351 2.99065 13.3014 2.69067 13.2407C3.31741 15.3468 5.1358 16.8804 7.29018 16.9231C5.60563 18.3454 3.48264 19.1932 1.17503 19.1932C0.778124 19.1932 0.385831 19.1683 0 19.1186C2.1793 20.6224 4.76659 21.5 7.54771 21.5C16.6046 21.5 21.5558 13.4216 21.5558 6.41566C21.5558 6.18607 21.5512 5.95747 21.5419 5.72987C22.5047 4.98147 23.34 4.0482 24 2.98573Z" fill="#017AF1"/>
</svg>
